<svg width="16" height="10" viewBox="0 0 16 10" fill="none" xmlns="http://www.w3.org/2000/svg">
<path d="M0.684 9V0.599999H5.172C6.332 0.599999 7.188 0.808 7.74 1.224C8.292 1.632 8.568 2.156 8.568 2.796C8.568 3.22 8.448 3.6 8.208 3.936C7.976 4.264 7.636 4.524 7.188 4.716C6.74 4.908 6.188 5.004 5.532 5.004L5.772 4.356C6.428 4.356 6.992 4.448 7.464 4.632C7.944 4.816 8.312 5.084 8.568 5.436C8.832 5.78 8.964 6.196 8.964 6.684C8.964 7.412 8.66 7.98 8.052 8.388C7.452 8.796 6.572 9 5.412 9H0.684ZM3.468 7.02H5.172C5.484 7.02 5.716 6.964 5.868 6.852C6.028 6.74 6.108 6.576 6.108 6.36C6.108 6.144 6.028 5.98 5.868 5.868C5.716 5.756 5.484 5.7 5.172 5.7H3.276V3.828H4.788C5.108 3.828 5.34 3.776 5.484 3.672C5.636 3.56 5.712 3.404 5.712 3.204C5.712 2.996 5.636 2.84 5.484 2.736C5.34 2.632 5.108 2.58 4.788 2.58H3.468V7.02Z" fill="#DE24FF"/>
<path d="M10.8893 9.192C10.2093 9.192 9.57725 9.084 8.99325 8.868C8.41725 8.652 7.91725 8.348 7.49325 7.956C7.06925 7.556 6.73725 7.088 6.49725 6.552C6.26525 6.016 6.14925 5.432 6.14925 4.8C6.14925 4.16 6.26525 3.576 6.49725 3.048C6.73725 2.512 7.06925 2.048 7.49325 1.656C7.91725 1.256 8.41725 0.947999 8.99325 0.732C9.57725 0.516 10.2093 0.408 10.8893 0.408C11.5773 0.408 12.2093 0.516 12.7853 0.732C13.3613 0.947999 13.8613 1.256 14.2853 1.656C14.7093 2.048 15.0373 2.512 15.2693 3.048C15.5093 3.576 15.6293 4.16 15.6293 4.8C15.6293 5.432 15.5093 6.016 15.2693 6.552C15.0373 7.088 14.7093 7.556 14.2853 7.956C13.8613 8.348 13.3613 8.652 12.7853 8.868C12.2093 9.084 11.5773 9.192 10.8893 9.192ZM10.8893 6.9C11.1533 6.9 11.3973 6.852 11.6213 6.756C11.8533 6.66 12.0533 6.524 12.2213 6.348C12.3973 6.164 12.5333 5.944 12.6293 5.688C12.7253 5.424 12.7733 5.128 12.7733 4.8C12.7733 4.472 12.7253 4.18 12.6293 3.924C12.5333 3.66 12.3973 3.44 12.2213 3.264C12.0533 3.08 11.8533 2.94 11.6213 2.844C11.3973 2.748 11.1533 2.7 10.8893 2.7C10.6253 2.7 10.3773 2.748 10.1453 2.844C9.92125 2.94 9.72125 3.08 9.54525 3.264C9.37725 3.44 9.24525 3.66 9.14925 3.924C9.05325 4.18 9.00525 4.472 9.00525 4.8C9.00525 5.128 9.05325 5.424 9.14925 5.688C9.24525 5.944 9.37725 6.164 9.54525 6.348C9.72125 6.524 9.92125 6.66 10.1453 6.756C10.3773 6.852 10.6253 6.9 10.8893 6.9Z" fill="#E04F00"/>
</svg>
